<svg id="Layer_1" height="512" viewBox="0 0 512 512" width="512" xmlns="http://www.w3.org/2000/svg" data-name="Layer 1">
<path d="m180.31 272.54h-62.25a22.025 22.025 0 0 0 -22 22v19.28a6 6 0 0 0 6 6h78.25a6 6 0 0 0 6-6v-35.28a6 6 0 0 0 -6-6zm-59.41 35.28h-12.84v-13.28a10.011 10.011 0 0 1 10-10h2.84zm28.56 0h-16.56v-23.28h16.56zm24.85 0h-12.85v-23.28h12.85z"/><path d="m126.66 366.82h-5.83a6 6 0 1 0 0 12h5.83a6 6 0 1 0 0-12z"/><path d="m138.57 372.82a6 6 0 0 0 6 6h169.53a6 6 0 0 0 0-12h-169.53a6 6 0 0 0 -6 6z"/><path d="m282.74 257.42a6 6 0 0 0 6-6v-43.43a6 6 0 0 0 -12 0v43.43a6 6 0 0 0 6 6z"/><path d="m319.06 257.42a6 6 0 0 0 6-6v-43.43a6 6 0 1 0 -12 0v43.43a6 6 0 0 0 6 6z"/><path d="m355.39 257.42a6 6 0 0 0 6-6v-43.43a6 6 0 0 0 -12 0v43.43a6 6 0 0 0 6 6z"/><path d="m484.96 480.59c-13.429 0-19.906-5.621-27.407-12.13-8.14-7.064-17.366-15.07-35.283-15.07s-27.142 8-35.282 15.068c-7.5 6.51-13.983 12.132-27.418 12.132s-19.906-5.621-27.407-12.13c-8.14-7.064-17.366-15.07-35.283-15.07s-27.143 8.01-35.28 15.07c-7.5 6.509-13.979 12.13-27.408 12.13s-19.916-5.623-27.419-12.133c-8.138-7.062-17.362-15.067-35.271-15.067s-27.135 8.006-35.272 15.068c-7.5 6.51-13.978 12.132-27.408 12.132s-19.917-5.622-27.422-12.132c-8.138-7.058-17.365-15.068-35.28-15.068a6 6 0 0 0 0 12c13.435 0 19.914 5.622 27.418 12.132 8.14 7.062 17.367 15.068 35.282 15.068s27.135-8.006 35.273-15.069c7.5-6.509 13.977-12.131 27.407-12.131s19.906 5.621 27.407 12.13c8.14 7.063 17.366 15.07 35.283 15.07s27.133-8 35.272-15.067c7.5-6.51 13.982-12.133 27.418-12.133s19.916 5.623 27.419 12.133c8.139 7.062 17.362 15.067 35.271 15.067s27.142-8 35.282-15.068c7.5-6.51 13.983-12.132 27.418-12.132s19.916 5.623 27.418 12.133c8.139 7.062 17.363 15.067 35.272 15.067a6 6 0 0 0 0-12z"/><path d="m493.64 332.42h-9.96v-24.81a6 6 0 0 0 -6-6h-13.46v-276.2a6 6 0 0 0 -6-6h-28.29a6 6 0 0 0 -6 6v19.38h-117.31a6 6 0 0 0 -6 6v20.3a6 6 0 0 0 6 6h5.77v17.49a5.513 5.513 0 0 1 -2.7 4.721 17.1 17.1 0 0 0 4.3 31.256v14.62l-68.5 39.355-4.1 4.147a10.9 10.9 0 0 0 -1.39 5.321v74.25a6 6 0 0 0 6 6h146.13a6 6 0 0 0 6-6v-74.2a10.891 10.891 0 0 0 -1.436-5.406l-.083-.145a10.9 10.9 0 0 0 -3.927-3.981l-66.694-39.3v-15.848a17.112 17.112 0 0 0 9.5-14.925 6.165 6.165 0 0 0 -5.441-6.38 6 6 0 0 0 -6.554 5.975 5.116 5.116 0 0 1 -10.031 1.417 5.131 5.131 0 0 1 2.326-5.823 17.566 17.566 0 0 0 8.6-15.054v-17.49h99.54v224.52h-210.66v-60.14a6 6 0 0 0 -6-6h-17.89v-76.17a6 6 0 0 0 -6-6h-38.22a6 6 0 0 0 -6 6v76.17h-4.61a79.752 79.752 0 0 0 -68.088 38.6l-34.913 58.35h-13.189a6 6 0 0 0 -5.377 8.662l35.1 70.911q-.966-.031-1.959-.033a6 6 0 0 0 0 12 36.151 36.151 0 0 1 10.51 1.411c6.924 2.059 11.774 6.266 16.91 10.719 8.14 7.059 17.366 15.06 35.28 15.06s27.134-8 35.272-15.063c7.5-6.507 13.978-12.127 27.408-12.127s19.907 5.619 27.407 12.125c8.141 7.061 17.367 15.065 35.283 15.065s27.133-8 35.271-15.061c7.5-6.508 13.982-12.129 27.419-12.129s19.917 5.621 27.42 12.129c8.138 7.059 17.362 15.061 35.27 15.061s27.141-8 35.282-15.063c7.5-6.507 13.982-12.127 27.418-12.127s19.914 5.62 27.417 12.127c4.527 3.927 9.209 7.987 15.538 10.947a45.563 45.563 0 0 0 19.735 4.116 6 6 0 0 0 0-12 36.944 36.944 0 0 1 -10.069-1.3l24.569-97.974a6 6 0 0 0 -5.82-7.459zm-107.51-70.17h-134.13v-65.09h134.13zm-66.178-106.658 50.178 29.568h-101.643zm115.978-124.182h16.29v270.2h-16.29zm-123.31 33.68v-8.3h111.31v8.3zm-161.46 100.21h26.22v16.67h-26.22zm0 28.67h26.22v41.5h-26.22zm-74.4 86.262a67.693 67.693 0 0 1 57.79-32.762h66.72v84.95h-155.738zm387.163 152.038c-2.174-1.613-4.245-3.4-6.374-5.249-8.141-7.06-17.366-15.061-35.279-15.061s-27.141 8-35.282 15.062c-7.5 6.508-13.982 12.128-27.418 12.128s-19.907-5.619-27.407-12.126c-8.141-7.061-17.367-15.064-35.283-15.064s-27.142 8-35.282 15.064c-7.5 6.507-13.979 12.126-27.408 12.126s-19.917-5.621-27.419-12.129c-8.138-7.06-17.363-15.061-35.271-15.061s-27.134 8-35.271 15.063c-7.5 6.507-13.979 12.127-27.409 12.127s-19.92-5.619-27.42-12.126c-5.02-4.353-10.649-9.222-18.531-12.2l-34.845-70.404h222.649a6 6 0 1 0 0-12h-37.4v-18.81h258.407v18.81h-196.349a6 6 0 0 0 0 12h210.618z"/></svg>